<svg preserveAspectRatio="none" width="100%" height="100%" overflow="visible" style="display: block;" viewBox="0 0 11.6867 13.6667" fill="none" xmlns="http://www.w3.org/2000/svg">
<g id="Layer 2">
<path id="Vector" d="M1.18667 13.6667C1.00655 13.6661 0.828871 13.6251 0.666667 13.5467C0.467837 13.4533 0.299626 13.3053 0.181605 13.1201C0.0635841 12.9348 0.000606625 12.7198 0 12.5001V1.16674C0.000868698 1.01209 0.0323019 0.859138 0.0924921 0.716679C0.152682 0.574219 0.240442 0.445064 0.350724 0.336641C0.461005 0.228218 0.591633 0.142666 0.735096 0.0849055C0.878558 0.0271453 1.03202 -0.00168389 1.18667 7.59765e-05H10.52C10.8289 0.00182604 11.1246 0.125304 11.343 0.343719C11.5614 0.562133 11.6849 0.857863 11.6867 1.16674V12.5001C11.6823 12.7112 11.6208 12.9172 11.5086 13.0961C11.3964 13.275 11.2377 13.42 11.0495 13.5158C10.8614 13.6116 10.6507 13.6546 10.44 13.6401C10.2294 13.6255 10.0266 13.5541 9.85333 13.4334L5.98667 10.5334C5.95829 10.5107 5.92302 10.4983 5.88667 10.4983C5.85031 10.4983 5.81504 10.5107 5.78667 10.5334L1.88667 13.4334C1.68428 13.584 1.43894 13.6658 1.18667 13.6667ZM1.18667 1.00008C1.14246 1.00008 1.10007 1.01764 1.06882 1.04889C1.03756 1.08015 1.02 1.12254 1.02 1.16674V12.5001C1.01977 12.5309 1.02845 12.5612 1.04501 12.5872C1.06157 12.6132 1.08529 12.6339 1.11333 12.6467C1.13885 12.6642 1.16906 12.6736 1.2 12.6736C1.23094 12.6736 1.26115 12.6642 1.28667 12.6467L5.18667 9.73341C5.38946 9.58397 5.63476 9.50336 5.88667 9.50336C6.13857 9.50336 6.38387 9.58397 6.58667 9.73341L10.4533 12.6334C10.4789 12.6509 10.5091 12.6603 10.54 12.6603C10.5709 12.6603 10.6011 12.6509 10.6267 12.6334C10.6547 12.6206 10.6784 12.5999 10.695 12.5739C10.7115 12.5478 10.7202 12.5176 10.72 12.4867V1.16674C10.7205 1.14175 10.7154 1.11696 10.705 1.09421C10.6946 1.07146 10.6793 1.05134 10.6601 1.03533C10.6409 1.01933 10.6183 1.00785 10.594 1.00174C10.5698 0.99564 10.5445 0.99507 10.52 1.00008H1.18667Z" fill="var(--fill-0, white)"/>
</g>
</svg>
