<svg preserveAspectRatio="none" width="100%" height="100%" overflow="visible" style="display: block;" viewBox="0 0 40 40" fill="none" xmlns="http://www.w3.org/2000/svg">
<g id="&#236;&#150;&#184;&#236;&#150;&#180;&#236;&#132;&#160;&#237;&#131;&#157;&#235;&#178;&#132;&#237;&#138;&#188;">
<g id="Rectangle 3">
</g>
<path id="Vector" d="M34.9999 20.0188C35.0028 22.7846 34.238 25.4968 32.7908 27.8526H32.8243L32.2841 28.6546L31.9563 29.1209L31.7552 29.3858L31.5391 29.5798C31.4013 29.7476 31.2634 29.9118 31.1219 30.0722C31.0362 30.1654 30.9468 30.255 30.8574 30.3445C30.768 30.434 30.6227 30.6019 30.4848 30.7175C30.347 30.8332 30.2427 30.9451 30.1123 31.0607C29.9819 31.1764 29.9223 31.2398 29.8217 31.3256C29.7211 31.4114 29.5125 31.583 29.3561 31.6986L29.1325 31.8814C28.9426 32.0269 28.76 32.1686 28.5477 32.3067L28.4136 32.4037C28.19 32.5566 27.9591 32.7021 27.7244 32.8438L27.6648 32.8811C25.6382 34.0967 23.3533 34.8151 20.9965 34.9776H20.9108C20.6948 34.9776 20.4787 34.9963 20.2626 35H20.0056H19.9199C19.7597 35 19.6032 35 19.4431 35H19.0258C18.8694 35 18.7129 34.9702 18.5564 34.9552L18.128 34.9179C17.979 34.9179 17.83 34.8694 17.6773 34.8471L17.2414 34.7799C17.0999 34.7538 16.962 34.7165 16.8242 34.6866C16.6863 34.6568 16.5187 34.627 16.3697 34.5897C16.2207 34.5524 16.1015 34.5151 15.9674 34.4777C15.8333 34.4404 15.6619 34.3957 15.5092 34.3472C15.3564 34.2987 15.2521 34.2577 15.1366 34.2129C15.0211 34.1681 14.8349 34.1122 14.6859 34.0562L14.3133 33.9033C14.1643 33.8436 14.0153 33.7839 13.8663 33.7168C13.7173 33.6496 13.6279 33.6011 13.4938 33.5452C13.3597 33.4892 13.1995 33.4071 13.0542 33.3288C12.9089 33.2505 12.8232 33.202 12.7077 33.1385C12.5922 33.0751 12.4172 32.9819 12.2793 32.8961C12.1415 32.8103 12.0446 32.7469 11.9254 32.6722C11.8062 32.5976 11.6609 32.5081 11.5305 32.4186C11.4002 32.3291 11.2958 32.247 11.1804 32.1649C11.0649 32.0828 10.9308 31.9896 10.8078 31.8963L10.4763 31.6203C10.3571 31.5233 10.2341 31.43 10.1037 31.3293L9.7722 31.0234C9.66417 30.9227 9.55241 30.8257 9.4481 30.7213C9.34379 30.6168 9.20595 30.4713 9.07557 30.3482C8.94518 30.2251 8.90048 30.1692 8.8148 30.0759C8.66951 29.9118 8.53168 29.7439 8.39012 29.576C8.33796 29.5126 8.28208 29.4529 8.22993 29.3858C8.17777 29.3186 8.09582 29.2067 8.02876 29.1209L7.69721 28.6509L7.17567 27.8526H7.2092C5.79753 25.547 5.03459 22.9022 5.00115 20.198C4.9677 17.4937 5.66499 14.8308 7.01921 12.4909H6.98941L7.5035 11.715L7.83505 11.2189H7.85367C9.24227 9.29365 11.0674 7.72601 13.179 6.64488C15.2906 5.56375 17.6284 5 20 5C22.3716 5 24.7093 5.56375 26.8209 6.64488C28.9326 7.72601 30.7577 9.29365 32.1463 11.2189H32.1649L32.4928 11.715L33.0292 12.476H32.9957C34.3186 14.7684 35.0102 17.3712 34.9999 20.0188ZM30.157 11.1107C30.0192 10.9503 29.8739 10.7936 29.7286 10.6444L29.628 10.5362C29.4567 10.3646 29.2816 10.193 29.1027 10.0326L28.9835 9.92069C28.8271 9.78639 28.6743 9.6521 28.5141 9.52153L28.3912 9.42454C28.205 9.2716 28.0187 9.12985 27.8175 8.98809L27.6834 8.89856C27.5195 8.78292 27.3481 8.67101 27.1768 8.56283L27.0389 8.4733C26.834 8.3502 26.6292 8.23082 26.4168 8.10026L26.279 8.02938C26.1002 7.93612 25.9064 7.84286 25.7351 7.75707L25.5786 7.70857C25.3588 7.60785 25.139 7.51459 24.9155 7.42879L24.7777 7.37657C24.5877 7.30196 24.4052 7.23481 24.1965 7.17139L24.0363 7.11917C23.8315 7.05202 23.6228 6.99607 23.4105 6.94011C23.567 7.09306 23.7197 7.2572 23.8724 7.42506L24.0065 7.58174C24.1444 7.73841 24.2785 7.89509 24.4089 8.06295C24.4722 8.14129 24.5355 8.22709 24.5951 8.30916C24.6547 8.39123 24.7963 8.57029 24.8932 8.70831C24.99 8.84634 25.0273 8.90229 25.0906 8.99928C25.1539 9.09627 25.2731 9.26414 25.3588 9.39843L25.5563 9.72298C25.6382 9.861 25.7239 9.99529 25.8021 10.1333C25.8804 10.2713 25.9325 10.3683 25.9959 10.5064C26.0592 10.6444 26.1486 10.7861 26.2231 10.9279C26.2976 11.0696 26.346 11.1815 26.4094 11.3009C26.4727 11.4203 26.5472 11.5882 26.6142 11.7336L26.7893 12.1365C26.8527 12.282 26.9123 12.4275 26.9719 12.5767C26.9915 12.6168 27.0089 12.6579 27.024 12.6998L27.6201 12.5804L27.8771 12.5282C28.2757 12.4424 28.6632 12.3454 29.0431 12.2447L29.3114 12.1738C29.6168 12.088 29.9186 11.9985 30.2129 11.909L30.496 11.8194L30.6636 11.7598C30.5295 11.5844 30.3917 11.4128 30.2464 11.245L30.157 11.1107ZM15.8034 7.14901C15.6023 7.21616 15.4086 7.28704 15.2111 7.35791L15.0435 7.42506C14.8237 7.51086 14.6039 7.60412 14.3841 7.70111L14.2686 7.76079C14.0824 7.84659 13.8961 7.93985 13.7136 8.03684L13.5571 8.11891C13.3448 8.23082 13.1399 8.3502 12.9387 8.49195L12.8232 8.56283C12.6481 8.67474 12.4768 8.78665 12.3091 8.90229L12.1676 8.99182C11.9701 9.12984 11.795 9.2716 11.5939 9.42081L11.4858 9.51034C11.3269 9.64215 11.1704 9.77644 11.0164 9.91322L10.8823 10.0289C10.7072 10.193 10.5322 10.3609 10.3645 10.5325C10.3303 10.5655 10.298 10.6003 10.2677 10.6369C10.1224 10.7861 9.98082 10.9428 9.84298 11.0995L9.73122 11.2263C9.58966 11.3942 9.45182 11.5658 9.31771 11.7374L9.48163 11.7971L9.75357 11.8829C10.0516 11.9761 10.3571 12.0657 10.6663 12.1477L10.9196 12.2186C11.2921 12.3193 11.687 12.4126 12.0856 12.5021L12.3315 12.5543L12.9126 12.67C12.9126 12.6289 12.9461 12.5879 12.9648 12.5469C13.0244 12.3939 13.0877 12.2484 13.151 12.0992C13.2144 11.95 13.2628 11.8306 13.3224 11.7001C13.382 11.5695 13.4602 11.4091 13.5273 11.2673C13.5944 11.1256 13.6502 11.01 13.7136 10.8943C13.7769 10.7787 13.8588 10.6145 13.9334 10.4765C14.0079 10.3385 14.0637 10.234 14.1308 10.1035C14.1978 9.97291 14.2873 9.83489 14.3655 9.70432L14.5667 9.36859C14.6523 9.23802 14.7343 9.11492 14.82 8.99555C14.9057 8.87618 14.9578 8.78292 15.0286 8.6822C15.0994 8.58148 15.2037 8.44345 15.2931 8.30916C15.3825 8.17487 15.4309 8.11518 15.5054 8.02565C15.5799 7.93612 15.6917 7.7981 15.7848 7.68619C15.878 7.57428 15.9227 7.51832 15.9934 7.43998C16.0642 7.36164 16.1983 7.21616 16.3026 7.10798L16.474 6.92892C16.284 6.97742 16.1015 7.02964 15.9078 7.08933L15.8034 7.14901ZM12.2272 27.8862C11.8546 27.9682 11.4635 28.0578 11.1096 28.1548L10.8302 28.2256C10.5247 28.3077 10.2267 28.3935 9.93611 28.483L9.69024 28.5576L9.55986 28.5987L9.67907 28.7367C9.82808 28.9158 9.98454 29.0911 10.1447 29.2627L10.3608 29.4865C10.521 29.6544 10.6923 29.8148 10.86 29.9715L11.05 30.1468C11.2847 30.352 11.5231 30.5534 11.7727 30.7436C11.8174 30.7772 11.8658 30.8071 11.9105 30.8444C12.1154 30.9973 12.324 31.1428 12.5364 31.2845L12.7971 31.4524C12.9834 31.5681 13.1697 31.68 13.3634 31.7881L13.6242 31.9374C13.8626 32.0642 14.101 32.1836 14.3469 32.3104L14.4623 32.3664C14.7455 32.4932 15.036 32.6088 15.3266 32.717C15.4086 32.7506 15.498 32.7767 15.5799 32.8065C15.796 32.8811 16.0121 32.9483 16.2281 33.0154L16.3734 33.0527C16.3324 33.0117 16.2915 32.9595 16.2468 32.9147C16.2021 32.87 16.094 32.7506 16.0195 32.6648L15.7736 32.3813L15.5501 32.1052C15.4682 32.0045 15.3899 31.9001 15.3117 31.7956C15.2335 31.6912 15.1664 31.5979 15.0919 31.4972L14.8609 31.1652C14.7902 31.0607 14.7194 30.9563 14.6523 30.8481L14.4288 30.4937L14.2276 30.1542C14.1569 30.0311 14.0861 29.908 14.019 29.7812C13.952 29.6544 13.8849 29.5425 13.8216 29.4082C13.7583 29.2739 13.6912 29.1508 13.6279 29.0351C13.5645 28.9195 13.5012 28.7815 13.4416 28.6621C13.382 28.5427 13.3187 28.401 13.2628 28.2667C13.2069 28.1324 13.1436 28.0018 13.0877 27.8675C13.0691 27.8265 13.0542 27.7892 13.0356 27.7519C12.8418 27.7892 12.6407 27.8228 12.4507 27.8638L12.2272 27.8862ZM23.716 33.0042C23.932 32.9408 24.1481 32.8737 24.3604 32.7991L24.6249 32.7095C24.9192 32.6014 25.2098 32.4857 25.4967 32.3589L25.5786 32.3291C25.8431 32.2059 26.1076 32.0754 26.3684 31.9374L26.618 31.7956C26.8154 31.6874 26.9905 31.5718 27.1991 31.4524L27.4524 31.2883C27.6648 31.1465 27.8734 31.001 28.082 30.8481C28.1267 30.8108 28.1789 30.7772 28.2236 30.7436C28.4732 30.5534 28.7153 30.352 28.9686 30.1431L29.1512 29.9752C29.3263 29.8148 29.4976 29.6506 29.6615 29.4828C29.736 29.4082 29.8068 29.3336 29.8776 29.2552C30.0378 29.0874 30.1943 28.912 30.3433 28.733C30.3842 28.6845 30.4252 28.6397 30.4625 28.5912L30.3358 28.5502L30.0899 28.4756C29.7957 28.3823 29.4939 28.2965 29.1884 28.2144L28.9239 28.1473C28.5514 28.0503 28.1789 27.9608 27.7803 27.875L27.5642 27.8302L26.9607 27.7146C26.9421 27.7556 26.9272 27.7929 26.9085 27.8302C26.8527 27.9682 26.7931 28.1025 26.7335 28.2368L26.5546 28.6285C26.495 28.7591 26.428 28.8896 26.3647 29.0016L26.1747 29.3746L25.9772 29.7476L25.7649 30.1207C25.7016 30.2326 25.6345 30.3408 25.5674 30.4489L25.3365 30.822L25.1428 31.1129C25.0583 31.2398 24.9726 31.3641 24.8857 31.486L24.6994 31.7359C24.6063 31.8628 24.5132 31.9859 24.4163 32.109L24.2152 32.3291C24.1109 32.4559 24.0065 32.5753 23.9022 32.7021C23.8538 32.7618 23.8017 32.814 23.7532 32.87L23.5744 33.0639L23.716 33.0042ZM25.3178 12.4424C25.1875 12.1552 25.0422 11.8642 24.8894 11.5695L24.8559 11.5024C24.7814 11.3569 24.7032 11.2151 24.6212 11.0696L24.5989 11.0323C24.5244 10.8943 24.4461 10.76 24.3679 10.6295L24.3306 10.5698C24.2487 10.428 24.1593 10.29 24.0736 10.152C24.0613 10.13 24.0476 10.1088 24.0326 10.0886L23.7868 9.71551C23.7756 9.70275 23.7656 9.68902 23.757 9.67448C23.6675 9.54019 23.5744 9.41335 23.4813 9.30144L23.4291 9.23056C23.336 9.10373 23.2466 8.98063 23.1535 8.85753C23.0603 8.73442 22.9635 8.61878 22.8666 8.48449C22.8666 8.46211 22.8256 8.43972 22.807 8.41361C22.7101 8.3017 22.6133 8.19352 22.5127 8.08907H22.4941C22.4047 7.98835 22.3115 7.89509 22.2184 7.80556L22.1551 7.74588C22.0582 7.65262 21.9576 7.56308 21.8608 7.48102L21.8161 7.44372C21.7304 7.37284 21.641 7.30196 21.5553 7.23854L21.4957 7.19378C21.3988 7.12663 21.302 7.06321 21.2051 7.00353L21.1455 6.96996C21.0598 6.92146 20.9742 6.8767 20.8847 6.83566H20.8549V13.3041C22.4257 13.2759 23.9933 13.1513 25.5488 12.9311C25.4892 12.7893 25.4259 12.6439 25.3588 12.4984L25.3178 12.4424ZM19.3313 6.70883C19.2334 6.74288 19.1376 6.78274 19.0445 6.8282L18.9886 6.85432C18.888 6.90654 18.7911 6.96249 18.6906 7.02591L18.6272 7.06694C18.5304 7.13036 18.4335 7.20124 18.3329 7.27584C18.2323 7.35418 18.128 7.44371 18.0274 7.53324L17.9604 7.59293C17.8598 7.68246 17.7592 7.77945 17.6624 7.88017L17.6102 7.92866L17.3345 8.22336L17.2898 8.27559C17.1893 8.3875 17.0924 8.50314 16.9955 8.62251L16.9322 8.70085C16.8354 8.82022 16.7385 8.94706 16.6416 9.07389L16.6193 9.10373L16.3473 9.47677L16.2654 9.57376C16.1723 9.70432 16.0828 9.83861 15.9934 9.97664L15.9413 10.0587C15.8556 10.193 15.7699 10.3273 15.688 10.4653V10.4914C15.5986 10.6357 15.5129 10.7812 15.4309 10.9279L15.3825 11.0137C15.3005 11.1592 15.2223 11.3047 15.1441 11.4501L15.1143 11.5061C15.0398 11.6441 14.969 11.7859 14.9019 11.9239C14.9019 11.9239 14.9019 11.9612 14.8721 11.9761C14.8013 12.1253 14.7306 12.2708 14.6635 12.4163L14.63 12.4909C14.5629 12.6364 14.4996 12.7819 14.4363 12.9236L14.8609 12.9871L15.3117 13.0467C15.6842 13.0952 16.0866 13.1325 16.4777 13.1698L16.7758 13.1997C17.26 13.237 17.7518 13.2668 18.2435 13.2892H18.616H19.3611V6.69764L19.3313 6.70883ZM13.5832 15.4752L13.5273 15.7177C13.4491 16.046 13.3746 16.3742 13.315 16.7062L13.2852 16.8219C13.2218 17.1949 13.1697 17.5418 13.125 17.9037C13.125 17.9858 13.1063 18.0716 13.0989 18.1536C13.0616 18.5267 13.0318 18.8997 13.0132 19.2504H19.3462V14.8224C18.8507 14.8224 18.359 14.7963 17.8561 14.7702L17.383 14.7366L16.4032 14.6657L15.8407 14.606C15.5464 14.5762 15.2558 14.5464 14.9653 14.509L14.4027 14.4232L13.9222 14.3598L13.8812 14.4232C13.7732 14.7776 13.6577 15.1246 13.5832 15.4752ZM26.0629 14.3561C24.3365 14.6233 22.5941 14.7741 20.8475 14.8075V19.2727H26.9458C26.8724 17.6029 26.5754 15.9505 26.0629 14.3598V14.3561ZM14.5741 27.4796C14.63 27.6064 14.6896 27.737 14.7529 27.8526L14.7864 27.9235L14.9913 28.3338L15.0323 28.4084C15.1031 28.5464 15.1739 28.6845 15.2521 28.8225L15.5203 29.2963C15.5353 29.3178 15.549 29.3402 15.5613 29.3634C15.647 29.5089 15.7327 29.6506 15.8221 29.7924C15.9115 29.9342 16.0046 30.0759 16.0977 30.2177V30.2475C16.1909 30.3893 16.2877 30.5273 16.3883 30.6653V30.6951C16.5895 30.9749 16.7944 31.2472 17.0067 31.5046C17.7518 32.4186 18.5639 33.1274 19.3201 33.3997V27.1065C17.7157 27.1293 16.1143 27.2539 14.5257 27.4796H14.5741ZM22.7697 31.6912C22.889 31.5606 23.0119 31.4188 23.1423 31.2734C23.1595 31.2544 23.1757 31.2345 23.1907 31.2137C23.295 31.0831 23.403 30.9488 23.5074 30.8071L23.6191 30.6578C23.7085 30.5347 23.7979 30.4042 23.8873 30.2848L23.9879 30.1393C24.1071 29.9603 24.2263 29.7663 24.3604 29.5835L24.4089 29.5014C24.5095 29.3336 24.6063 29.1582 24.7069 28.9792L24.8075 28.7889C24.8932 28.6322 24.9751 28.4718 25.0571 28.304L25.1465 28.1249C25.2508 27.9123 25.3477 27.6922 25.4445 27.4684C25.3178 27.4497 25.1949 27.4273 25.072 27.4124L24.6696 27.3602C24.2785 27.3154 23.8873 27.2744 23.4925 27.2371L23.2689 27.2184C22.8045 27.1811 22.3351 27.1513 21.8608 27.1289H21.4882H20.8847V33.2878L20.9183 33.2691C21.0077 33.2206 21.1008 33.1684 21.1977 33.1087L21.2908 33.049C21.369 32.9931 21.4547 32.9371 21.5367 32.8737C21.6186 32.8103 21.5963 32.8327 21.6261 32.8065C21.7378 32.7207 21.8533 32.6312 21.9688 32.5305L22.0098 32.4932C22.1104 32.4037 22.2184 32.3067 22.3227 32.2059L22.427 32.0978C22.5164 32.0082 22.6096 31.915 22.699 31.818L22.7697 31.6912ZM20.8438 25.6144C21.3094 25.6144 21.7751 25.6405 22.237 25.6666L22.6841 25.6964C22.997 25.7188 23.3062 25.7375 23.6154 25.7673L24.1407 25.8195C24.4163 25.8457 24.6957 25.8755 24.9714 25.9091L25.5227 25.9837L25.9511 26.0359L25.9959 25.9091L26.0741 25.6703C26.1262 25.5025 26.1784 25.3383 26.2231 25.1705C26.2492 25.0847 26.2752 24.9989 26.2976 24.9168C26.3423 24.7452 26.387 24.5736 26.428 24.402L26.4839 24.1744C26.536 23.9481 26.5844 23.7206 26.6292 23.4918V23.4321C26.6739 23.1859 26.7148 22.936 26.7521 22.686C26.7521 22.6077 26.7707 22.5331 26.7819 22.4585C26.8042 22.2869 26.8266 22.1116 26.8452 21.9362C26.8452 21.8467 26.8452 21.7534 26.8713 21.6602C26.8713 21.4998 26.8974 21.3394 26.9048 21.1752V20.8992C26.9048 20.8992 26.9048 20.8022 26.9048 20.7537H20.8438V25.6144ZM14.0079 26.062C15.7777 25.7921 17.5637 25.6425 19.3537 25.6144V20.7649H13.0207C13.0913 22.5643 13.4239 24.3438 14.0079 26.0471V26.062ZM31.5652 13.0206C31.4087 13.0766 31.2448 13.1251 31.0809 13.181L30.7717 13.2818C30.3991 13.4049 29.9894 13.5242 29.5796 13.6324L29.4045 13.6772C29.032 13.7704 28.6892 13.8562 28.3204 13.9383L27.9479 14.0204L27.5754 14.1024C28.0871 15.7808 28.3777 17.519 28.4396 19.2727H33.4911C33.3729 17.0617 32.7114 14.9141 31.5652 13.0206ZM28.4434 20.7649C28.4434 20.8022 28.4434 20.8395 28.4434 20.8768V21.1454C28.4434 21.3319 28.4173 21.5184 28.4024 21.7087L28.38 21.9884C28.3577 22.1899 28.3353 22.3951 28.3093 22.5965C28.3093 22.6636 28.3093 22.7345 28.2832 22.8017C28.2459 23.0703 28.2012 23.3388 28.1528 23.6037L28.1193 23.7865C28.0783 23.9954 28.0336 24.2043 27.9889 24.4132C27.9889 24.5027 27.9479 24.5885 27.9256 24.6781C27.8809 24.8683 27.8324 25.0511 27.784 25.2413C27.7616 25.3271 27.7393 25.4092 27.7132 25.495C27.6511 25.7313 27.5803 25.9663 27.5009 26.2C27.4939 26.2304 27.4852 26.2603 27.4748 26.2896L27.8138 26.3604L28.1863 26.4425C28.5328 26.5171 28.8718 26.5992 29.2071 26.6813L29.4157 26.7335C29.8143 26.8379 30.198 26.9498 30.578 27.0655L30.8797 27.1625L31.364 27.3192C32.6303 25.3569 33.3635 23.0977 33.4911 20.7649H28.4434ZM8.63971 27.3266L9.11655 27.1737L9.4183 27.0767C9.79083 26.961 10.1634 26.8491 10.5694 26.7447L10.7818 26.6962C11.1133 26.6104 11.4523 26.5283 11.7988 26.4537L12.1676 26.3604L12.4954 26.2896H12.514C11.9264 24.5037 11.5928 22.6439 11.5231 20.7649H6.50884C6.63458 23.101 7.36926 25.3633 8.63971 27.3266ZM11.5305 19.2727C11.5287 19.2504 11.5287 19.2279 11.5305 19.2056V19.0265C11.5305 18.8251 11.5566 18.6274 11.5715 18.4259L11.5939 18.1835C11.6125 17.9895 11.6348 17.8104 11.6572 17.6053C11.6572 17.5381 11.6572 17.471 11.6833 17.4038C11.7168 17.1464 11.7578 16.8928 11.8025 16.6354C11.8025 16.5981 11.8025 16.557 11.8248 16.5197C11.8621 16.3034 11.9068 16.087 11.9515 15.8744C11.9701 15.7923 11.985 15.714 12.0036 15.6356C12.0446 15.4528 12.0893 15.2626 12.1378 15.0835C12.1564 15.0089 12.175 14.9343 12.1974 14.856C12.2644 14.6098 12.3315 14.3636 12.4097 14.1099H12.3911C12.2681 14.0875 12.1489 14.0577 12.0186 14.0316L11.646 13.9495C11.2735 13.8674 10.927 13.7816 10.5731 13.6884L10.3943 13.6436C9.99199 13.5354 9.60084 13.416 9.2134 13.2967L8.89675 13.1922L8.44227 13.0206C7.295 14.9141 6.63098 17.0614 6.50884 19.2727H11.5305Z" fill="var(--fill-0, white)"/>
</g>
</svg>
