<svg preserveAspectRatio="none" width="100%" height="100%" overflow="visible" style="display: block;" viewBox="0 0 30 27.8216" fill="none" xmlns="http://www.w3.org/2000/svg">
<g id="Group">
<path id="Vector" d="M9.375 9.375C8.33947 9.375 7.5 10.2144 7.5 11.25C7.5 12.2856 8.33947 13.125 9.375 13.125C10.4106 13.125 11.25 12.2856 11.25 11.25C11.25 10.2144 10.4106 9.375 9.375 9.375Z" fill="var(--fill-0, white)" fill-opacity="0.7"/>
<path id="Vector_2" d="M13.125 11.25C13.125 10.2144 13.9644 9.375 15 9.375C16.0356 9.375 16.875 10.2144 16.875 11.25C16.875 12.2856 16.0356 13.125 15 13.125C13.9644 13.125 13.125 12.2856 13.125 11.25Z" fill="var(--fill-0, white)" fill-opacity="0.7"/>
<path id="Vector_3" d="M20.625 9.375C19.5894 9.375 18.75 10.2144 18.75 11.25C18.75 12.2856 19.5894 13.125 20.625 13.125C21.6606 13.125 22.5 12.2856 22.5 11.25C22.5 10.2144 21.6606 9.375 20.625 9.375Z" fill="var(--fill-0, white)" fill-opacity="0.7"/>
<path id="Vector_4" fill-rule="evenodd" clip-rule="evenodd" d="M4.6875 0C2.09867 0 0 2.09867 0 4.6875V17.8125C0 20.4013 2.09867 22.5 4.6875 22.5H4.69885L4.70757 26.886C4.70833 27.2693 4.94242 27.6136 5.29863 27.7553C5.65483 27.8969 6.06141 27.8075 6.32524 27.5293L11.0961 22.5H25.3125C27.9013 22.5 30 20.4013 30 17.8125V4.6875C30 2.09867 27.9013 0 25.3125 0H4.6875ZM1.875 4.6875C1.875 3.1342 3.1342 1.875 4.6875 1.875H25.3125C26.8658 1.875 28.125 3.1342 28.125 4.6875V17.8125C28.125 19.3658 26.8658 20.625 25.3125 20.625H10.6931C10.4359 20.625 10.19 20.7307 10.013 20.9173L6.57791 24.5385L6.57199 21.5606C6.57097 21.0436 6.15153 20.625 5.6345 20.625H4.6875C3.1342 20.625 1.875 19.3658 1.875 17.8125V4.6875Z" fill="var(--fill-0, white)" fill-opacity="0.7"/>
</g>
</svg>
