<svg preserveAspectRatio="none" width="100%" height="100%" overflow="visible" style="display: block;" viewBox="0 0 25 24.9688" fill="none" xmlns="http://www.w3.org/2000/svg">
<g id="Group">
<path id="Vector" d="M8.375 7.09375L11.25 4.21875V16.2188C11.25 16.9688 11.75 17.4688 12.5 17.4688C13.25 17.4688 13.75 16.9688 13.75 16.2188V4.21875L16.625 7.09375C17.125 7.59375 17.875 7.59375 18.375 7.09375C18.875 6.59375 18.875 5.84375 18.375 5.34375L13.375 0.34375C13.25 0.21875 13.125 0.09375 13 0.09375C12.75 -0.03125 12.375 -0.03125 12 0.09375C11.875 0.09375 11.75 0.21875 11.625 0.34375L6.625 5.34375C6.125 5.84375 6.125 6.59375 6.625 7.09375C7.125 7.59375 7.875 7.59375 8.375 7.09375ZM23.75 14.9688C23 14.9688 22.5 15.4688 22.5 16.2188V21.2188C22.5 21.9688 22 22.4688 21.25 22.4688H3.75C3 22.4688 2.5 21.9688 2.5 21.2188V16.2188C2.5 15.4688 2 14.9688 1.25 14.9688C0.5 14.9688 0 15.4688 0 16.2188V21.2188C0 23.3438 1.625 24.9688 3.75 24.9688H21.25C23.375 24.9688 25 23.3438 25 21.2188V16.2188C25 15.4688 24.5 14.9688 23.75 14.9688Z" fill="var(--fill-0, white)" fill-opacity="0.7"/>
</g>
</svg>
