<svg preserveAspectRatio="none" width="100%" height="100%" overflow="visible" style="display: block;" viewBox="0 0 30 25" fill="none" xmlns="http://www.w3.org/2000/svg">
<g id="Group">
<path id="Vector" d="M27.5897 2.44973C24.327 -0.816136 19.0192 -0.816136 15.7573 2.44973L14.9997 3.20785L14.2425 2.44973C10.9807 -0.816578 5.67244 -0.816578 2.41059 2.44973C-0.78504 5.6493 -0.805791 10.7209 2.36246 14.2472C5.25213 17.4622 13.7745 24.4082 14.1361 24.7021C14.3816 24.9019 14.677 24.9992 14.9706 24.9992C14.9803 24.9992 14.99 24.9992 14.9993 24.9987C15.303 25.0129 15.609 24.9086 15.8624 24.7021C16.224 24.4082 24.7473 17.4622 27.6379 14.2467C30.8057 10.7209 30.7849 5.6493 27.5897 2.44973ZM25.6687 12.4728C23.4157 14.9788 17.2227 20.1472 14.9993 21.9813C12.7759 20.1477 6.58416 14.9797 4.33159 12.4732C2.1214 10.0137 2.10065 6.51085 4.28346 4.32535C5.39827 3.20962 6.86231 2.65131 8.32634 2.65131C9.79038 2.65131 11.2544 3.20918 12.3692 4.32535L14.0346 5.99277C14.2328 6.19125 14.4827 6.30972 14.745 6.35127C15.1706 6.44278 15.6324 6.32386 15.9635 5.99321L17.6298 4.32535C19.8598 2.09344 23.4873 2.09388 25.716 4.32535C27.8988 6.51085 27.878 10.0137 25.6687 12.4728Z" fill="var(--fill-0, white)" fill-opacity="0.7"/>
</g>
</svg>
