<svg preserveAspectRatio="none" width="100%" height="100%" overflow="visible" style="display: block;" viewBox="0 0 63 63" fill="none" xmlns="http://www.w3.org/2000/svg">
<g id="Group 28">
<circle id="Ellipse 11" cx="31.5" cy="31.5" r="31.5" fill="var(--fill-0, black)" fill-opacity="0.7"/>
<g id="Group">
<path id="Vector" d="M34.6765 20.1087C35.0577 20.2919 35.3 20.6773 35.3 21.1002V32.7445L36.4696 33.9142C36.5107 33.8047 36.57 33.6999 36.6481 33.6043C37.1514 32.988 37.5 32.0679 37.5 31.0002C37.5 29.9324 37.1514 29.0124 36.6481 28.396C36.2637 27.9255 36.3337 27.2325 36.8042 26.8482C37.2747 26.4639 37.9676 26.5338 38.352 27.0043C39.2038 28.0473 39.7 29.4706 39.7 31.0002C39.7 32.5297 39.2038 33.9531 38.352 34.996C38.2243 35.1524 38.0623 35.2645 37.8859 35.3304L39.1138 36.5584C40.1434 35.1341 40.8 33.1841 40.8 31.0002C40.8 28.6337 40.029 26.5419 38.8481 25.096C38.4637 24.6255 38.5337 23.9325 39.0041 23.5482C39.4747 23.1639 40.1676 23.2338 40.552 23.7043C42.0814 25.5769 43 28.1719 43 31.0002C43 33.7454 42.1345 36.271 40.6848 38.1295L42.6778 40.1223C43.1074 40.5519 43.1074 41.2484 42.6778 41.6779C42.2482 42.1075 41.5517 42.1075 41.1221 41.6779L21.3222 21.878C20.8926 21.4484 20.8926 20.752 21.3222 20.3224C21.7517 19.8928 22.4482 19.8928 22.8778 20.3224L26.9556 24.4002H27.9283C28.1781 24.4002 28.4204 24.3152 28.6155 24.1591L33.5129 20.2412C33.8431 19.9771 34.2954 19.9256 34.6765 20.1087Z" fill="var(--fill-0, white)"/>
<path id="Vector_2" d="M22.3109 25.0667L35.3 38.0558V40.9001C35.3 41.3229 35.0576 41.7084 34.6765 41.8915C34.2953 42.0747 33.843 42.0232 33.5128 41.7591L28.6154 37.8411C28.4204 37.6851 28.178 37.6001 27.9283 37.6001H24.3C22.4775 37.6001 21 36.1226 21 34.3001V27.7001C21 26.6246 21.5145 25.6692 22.3109 25.0667Z" fill="var(--fill-0, white)"/>
</g>
</g>
</svg>
