<svg preserveAspectRatio="none" width="100%" height="100%" overflow="visible" style="display: block;" viewBox="0 0 20 20" fill="none" xmlns="http://www.w3.org/2000/svg">
<g id="expand 1" clip-path="url(#clip0_0_4)">
<path id="Vector" d="M7.07812 1.25C7.07812 1.58152 6.94643 1.89946 6.71201 2.13388C6.47759 2.3683 6.15965 2.5 5.82812 2.5H2.5V5.82812C2.5 6.15965 2.3683 6.47759 2.13388 6.71201C1.89946 6.94643 1.58152 7.07812 1.25 7.07812C0.918479 7.07812 0.600537 6.94643 0.366117 6.71201C0.131696 6.47759 0 6.15965 0 5.82812V1.25C0 0.918479 0.131696 0.600537 0.366117 0.366117C0.600537 0.131696 0.918479 0 1.25 0L5.82812 0C6.15965 0 6.47759 0.131696 6.71201 0.366117C6.94643 0.600537 7.07812 0.918479 7.07812 1.25ZM5.82812 17.5H2.5V14.1719C2.5 13.8404 2.3683 13.5224 2.13388 13.288C1.89946 13.0536 1.58152 12.9219 1.25 12.9219C0.918479 12.9219 0.600537 13.0536 0.366117 13.288C0.131696 13.5224 0 13.8404 0 14.1719L0 18.75C0 19.0815 0.131696 19.3995 0.366117 19.6339C0.600537 19.8683 0.918479 20 1.25 20H5.82812C6.15965 20 6.47759 19.8683 6.71201 19.6339C6.94643 19.3995 7.07812 19.0815 7.07812 18.75C7.07812 18.4185 6.94643 18.1005 6.71201 17.8661C6.47759 17.6317 6.15965 17.5 5.82812 17.5ZM18.75 12.9219C18.4185 12.9219 18.1005 13.0536 17.8661 13.288C17.6317 13.5224 17.5 13.8404 17.5 14.1719V17.5H14.1719C13.8404 17.5 13.5224 17.6317 13.288 17.8661C13.0536 18.1005 12.9219 18.4185 12.9219 18.75C12.9219 19.0815 13.0536 19.3995 13.288 19.6339C13.5224 19.8683 13.8404 20 14.1719 20H18.75C19.0815 20 19.3995 19.8683 19.6339 19.6339C19.8683 19.3995 20 19.0815 20 18.75V14.1719C20 13.8404 19.8683 13.5224 19.6339 13.288C19.3995 13.0536 19.0815 12.9219 18.75 12.9219ZM18.75 0H14.1719C13.8404 0 13.5224 0.131696 13.288 0.366117C13.0536 0.600537 12.9219 0.918479 12.9219 1.25C12.9219 1.58152 13.0536 1.89946 13.288 2.13388C13.5224 2.3683 13.8404 2.5 14.1719 2.5H17.5V5.82812C17.5 6.15965 17.6317 6.47759 17.8661 6.71201C18.1005 6.94643 18.4185 7.07812 18.75 7.07812C19.0815 7.07812 19.3995 6.94643 19.6339 6.71201C19.8683 6.47759 20 6.15965 20 5.82812V1.25C20 0.918479 19.8683 0.600537 19.6339 0.366117C19.3995 0.131696 19.0815 0 18.75 0Z" fill="var(--fill-0, white)"/>
</g>
<defs>
<clipPath id="clip0_0_4">
<rect width="20" height="20" fill="white"/>
</clipPath>
</defs>
</svg>
