<svg preserveAspectRatio="none" width="100%" height="100%" overflow="visible" style="display: block;" viewBox="0 0 21 21.0001" fill="none" xmlns="http://www.w3.org/2000/svg">
<g id="Group">
<path id="Vector" d="M13.0549 0.103813C13.4187 0.278658 13.65 0.646556 13.65 1.05018V12.1652L14.7665 13.2817C14.8056 13.1772 14.8622 13.0772 14.9368 12.9859C15.4173 12.3976 15.75 11.5194 15.75 10.5002C15.75 9.48093 15.4173 8.60271 14.9368 8.01438C14.5699 7.56525 14.6367 6.90378 15.0858 6.53696C15.535 6.17012 16.1964 6.23684 16.5632 6.68596C17.3764 7.6815 17.85 9.04014 17.85 10.5002C17.85 11.9602 17.3764 13.3189 16.5632 14.3144C16.4413 14.4637 16.2868 14.5707 16.1184 14.6336L17.2905 15.8058C18.2733 14.4462 18.9 12.5848 18.9 10.5002C18.9 8.24129 18.1641 6.2446 17.0368 4.86438C16.6699 4.41526 16.7367 3.75379 17.1858 3.38697C17.635 3.02013 18.2964 3.08684 18.6632 3.53597C20.1231 5.32341 21 7.80049 21 10.5002C21 13.1206 20.1739 15.5314 18.7901 17.3054L20.6925 19.2077C21.1025 19.6177 21.1025 20.2826 20.6925 20.6926C20.2823 21.1026 19.6176 21.1026 19.2074 20.6926L0.307534 1.79265C-0.102511 1.3826 -0.102511 0.717788 0.307534 0.307733C0.717579 -0.102312 1.38241 -0.102312 1.79245 0.307733L5.6849 4.20017H6.6134C6.85182 4.20017 7.08315 4.11902 7.26932 3.97008L11.9441 0.230275C12.2593 -0.0218718 12.6911 -0.0710327 13.0549 0.103813Z" fill="var(--fill-0, white)"/>
<path id="Vector_2" d="M1.25131 4.83634L13.65 17.235V19.95C13.65 20.3536 13.4187 20.7215 13.0548 20.8963C12.691 21.0712 12.2592 21.022 11.944 20.7699L7.26927 17.03C7.08309 16.8812 6.85177 16.8 6.61335 16.8H3.14999C1.4103 16.8 0 15.3896 0 13.65V7.35001C0 6.32335 0.491157 5.41141 1.25131 4.83634Z" fill="var(--fill-0, white)"/>
</g>
</svg>
