<svg xmlns="http://www.w3.org/2000/svg" viewBox="0 0 480 360" width="480" height="360" role="img">
  <defs>
    <linearGradient id="bg-isekai" x1="0" y1="0" x2="1" y2="1">
      <stop offset="0" stop-color="#170f2e"/><stop offset="1" stop-color="#2a1a52"/>
    </linearGradient>
    <filter id="soft-isekai" x="-30%" y="-30%" width="160%" height="160%">
      <feGaussianBlur stdDeviation="34"/>
    </filter>
    <filter id="grain-isekai" x="0" y="0" width="100%" height="100%">
      <feTurbulence type="fractalNoise" baseFrequency="0.9" numOctaves="2" seed="7"/>
      <feColorMatrix type="saturate" values="0"/>
    </filter>
  </defs>
  <rect width="480" height="360" fill="url(#bg-isekai)"/>
  <g filter="url(#soft-isekai)">
    <ellipse cx="74" cy="142" rx="159" ry="122" fill="#a78bfa" opacity="0.48" transform="rotate(5 74 142)"/>
    <ellipse cx="90" cy="83" rx="126" ry="129" fill="#67e8f9" opacity="0.48" transform="rotate(126 90 83)"/>
    <ellipse cx="165" cy="289" rx="198" ry="68" fill="#5b3aa8" opacity="0.55" transform="rotate(40 165 289)"/>
    <ellipse cx="161" cy="206" rx="82" ry="71" fill="#a78bfa" opacity="0.42" transform="rotate(70 161 206)"/>
    <ellipse cx="348" cy="275" rx="104" ry="65" fill="#67e8f9" opacity="0.36" transform="rotate(28 348 275)"/>
    <path d="M-40 222 C 144 201, 336 225, 520 222" fill="none" stroke="#67e8f9" stroke-width="29" opacity="0.22" stroke-linecap="round"/>
    <path d="M-40 113 C 144 184, 336 109, 520 113" fill="none" stroke="#5b3aa8" stroke-width="35" opacity="0.22" stroke-linecap="round"/>
  </g>
  <rect width="480" height="360" filter="url(#grain-isekai)" opacity="0.055"/>
</svg>
