<svg xmlns="http://www.w3.org/2000/svg" viewBox="0 0 480 360" width="480" height="360" role="img">
  <defs>
    <linearGradient id="bg-makjang" x1="0" y1="0" x2="1" y2="1">
      <stop offset="0" stop-color="#22091c"/><stop offset="1" stop-color="#43102f"/>
    </linearGradient>
    <filter id="soft-makjang" x="-30%" y="-30%" width="160%" height="160%">
      <feGaussianBlur stdDeviation="34"/>
    </filter>
    <filter id="grain-makjang" x="0" y="0" width="100%" height="100%">
      <feTurbulence type="fractalNoise" baseFrequency="0.9" numOctaves="2" seed="7"/>
      <feColorMatrix type="saturate" values="0"/>
    </filter>
  </defs>
  <rect width="480" height="360" fill="url(#bg-makjang)"/>
  <g filter="url(#soft-makjang)">
    <ellipse cx="262" cy="101" rx="194" ry="102" fill="#d6337f" opacity="0.46" transform="rotate(170 262 101)"/>
    <ellipse cx="156" cy="160" rx="72" ry="105" fill="#ff77b0" opacity="0.31" transform="rotate(143 156 160)"/>
    <ellipse cx="221" cy="183" rx="129" ry="84" fill="#7a1846" opacity="0.49" transform="rotate(37 221 183)"/>
    <ellipse cx="386" cy="241" rx="88" ry="64" fill="#d6337f" opacity="0.58" transform="rotate(121 386 241)"/>
    <ellipse cx="255" cy="42" rx="198" ry="81" fill="#ff77b0" opacity="0.43" transform="rotate(37 255 42)"/>
    <path d="M-40 282 C 144 308, 336 183, 520 282" fill="none" stroke="#ff77b0" stroke-width="34" opacity="0.22" stroke-linecap="round"/>
    <path d="M-40 188 C 144 315, 336 267, 520 188" fill="none" stroke="#7a1846" stroke-width="33" opacity="0.22" stroke-linecap="round"/>
  </g>
  <rect width="480" height="360" filter="url(#grain-makjang)" opacity="0.055"/>
</svg>
