<svg xmlns="http://www.w3.org/2000/svg" viewBox="0 0 480 360" width="480" height="360" role="img">
  <defs>
    <linearGradient id="bg-mecha" x1="0" y1="0" x2="1" y2="1">
      <stop offset="0" stop-color="#141821"/><stop offset="1" stop-color="#242c3a"/>
    </linearGradient>
    <filter id="soft-mecha" x="-30%" y="-30%" width="160%" height="160%">
      <feGaussianBlur stdDeviation="34"/>
    </filter>
    <filter id="grain-mecha" x="0" y="0" width="100%" height="100%">
      <feTurbulence type="fractalNoise" baseFrequency="0.9" numOctaves="2" seed="7"/>
      <feColorMatrix type="saturate" values="0"/>
    </filter>
  </defs>
  <rect width="480" height="360" fill="url(#bg-mecha)"/>
  <g filter="url(#soft-mecha)">
    <ellipse cx="413" cy="247" rx="187" ry="125" fill="#94a3b8" opacity="0.52" transform="rotate(54 413 247)"/>
    <ellipse cx="258" cy="303" rx="147" ry="124" fill="#fb923c" opacity="0.64" transform="rotate(123 258 303)"/>
    <ellipse cx="291" cy="226" rx="118" ry="72" fill="#4b5563" opacity="0.47" transform="rotate(140 291 226)"/>
    <ellipse cx="99" cy="269" rx="199" ry="87" fill="#94a3b8" opacity="0.59" transform="rotate(126 99 269)"/>
    <ellipse cx="229" cy="62" rx="196" ry="75" fill="#fb923c" opacity="0.57" transform="rotate(72 229 62)"/>
    <path d="M-40 99 C 144 106, 336 283, 520 99" fill="none" stroke="#fb923c" stroke-width="38" opacity="0.22" stroke-linecap="round"/>
    <path d="M-40 266 C 144 203, 336 62, 520 266" fill="none" stroke="#4b5563" stroke-width="30" opacity="0.22" stroke-linecap="round"/>
  </g>
  <rect width="480" height="360" filter="url(#grain-mecha)" opacity="0.055"/>
</svg>
