<svg preserveAspectRatio="xMidYMid meet" width="100%" height="100%" overflow="visible" style="display: block;" viewBox="0 0 14.6083 17.0834" fill="none" xmlns="http://www.w3.org/2000/svg">
<g id="Layer 2">
<path id="Vector" d="M1.48333 17.0834C1.25819 17.0826 1.03609 17.0313 0.833333 16.9334C0.584796 16.8166 0.374532 16.6317 0.227006 16.4001C0.0794802 16.1685 0.000758281 15.8997 0 15.6251V1.45843C0.00108587 1.26511 0.0403774 1.07392 0.115615 0.895848C0.190853 0.717774 0.300552 0.55633 0.438405 0.420801C0.576257 0.285272 0.739542 0.178332 0.918869 0.106132C1.0982 0.0339316 1.29003 -0.00210486 1.48333 9.49706e-05H13.15C13.5361 0.00228255 13.9058 0.15663 14.1788 0.429648C14.4518 0.702666 14.6061 1.07233 14.6083 1.45843V15.6251C14.6029 15.889 14.526 16.1465 14.3857 16.3701C14.2455 16.5937 14.0472 16.7751 13.8119 16.8948C13.5767 17.0146 13.3134 17.0682 13.05 17.0501C12.7867 17.0319 12.5332 16.9427 12.3167 16.7918L7.48333 13.1668C7.44786 13.1384 7.40377 13.1229 7.35833 13.1229C7.31289 13.1229 7.26881 13.1384 7.23333 13.1668L2.35833 16.7918C2.10534 16.98 1.79868 17.0822 1.48333 17.0834ZM1.48333 1.2501C1.42808 1.2501 1.37509 1.27204 1.33602 1.31111C1.29695 1.35018 1.275 1.40317 1.275 1.45843V15.6251C1.27471 15.6636 1.28556 15.7015 1.30626 15.734C1.32696 15.7665 1.35662 15.7924 1.39167 15.8084C1.42357 15.8303 1.46133 15.842 1.5 15.842C1.53867 15.842 1.57643 15.8303 1.60833 15.8084L6.48333 12.1668C6.73683 11.98 7.04345 11.8792 7.35833 11.8792C7.67322 11.8792 7.97984 11.98 8.23333 12.1668L13.0667 15.7918C13.0986 15.8136 13.1363 15.8253 13.175 15.8253C13.2137 15.8253 13.2514 15.8136 13.2833 15.7918C13.3184 15.7757 13.348 15.7498 13.3687 15.7173C13.3894 15.6848 13.4003 15.647 13.4 15.6084V1.45843C13.4006 1.42718 13.3942 1.39619 13.3813 1.36776C13.3683 1.33932 13.3491 1.31417 13.3251 1.29416C13.3011 1.27416 13.2729 1.25981 13.2426 1.25218C13.2123 1.24455 13.1806 1.24384 13.15 1.2501H1.48333Z" fill="white"/>
</g>
</svg>
