<svg preserveAspectRatio="xMidYMid meet" width="100%" height="100%" overflow="visible" style="display: block;" viewBox="0 0 20 20" fill="none" xmlns="http://www.w3.org/2000/svg">
<g id="chats 1" clip-path="url(#clip0_0_4)">
<path id="Vector" d="M17.8383 6.64806H16.8684V3.23655C16.8684 1.72751 15.6829 0.5 14.2257 0.5H2.64439C1.18617 0.5 0 1.7286 0 3.23837V11.2079C0 12.6301 1.05259 13.8024 2.39328 13.9328V16.3962C2.39328 16.681 2.54918 16.9407 2.79506 17.0653C2.89446 17.1155 3.00119 17.1402 3.10756 17.1402C3.26451 17.1402 3.42006 17.0864 3.54841 16.9814L6.99149 14.1688V14.8519C6.99149 16.0936 7.96143 17.1038 9.15353 17.1038H14.3105L17.0501 19.3416C17.1784 19.4462 17.334 19.5 17.4909 19.5C17.5973 19.5 17.7044 19.4753 17.8034 19.4252C18.0493 19.3006 18.2052 19.0408 18.2052 18.756V17.0733C19.2222 16.8968 20 15.9737 20 14.865V8.89964C20 7.65797 19.0304 6.64806 17.8383 6.64806ZM16.7766 16.3599V17.2274L14.9979 15.7743C14.872 15.6718 14.7168 15.6159 14.5571 15.6159H9.15353C8.74895 15.6159 8.42006 15.2733 8.42006 14.8519V13.9448H14.224C15.6822 13.9448 16.8684 12.7162 16.8684 11.2064V8.13604H17.8383C18.2425 8.13604 18.5714 8.4786 18.5714 8.89964V14.865C18.5714 15.2791 18.2481 15.6159 17.8509 15.6159H17.4909C17.0965 15.6159 16.7766 15.949 16.7766 16.3599ZM3.82185 14.8672V13.2008C3.82185 12.79 3.50202 12.4568 3.10756 12.4568H2.64265C1.97335 12.4568 1.42857 11.8967 1.42857 11.2079V3.23837C1.42857 2.54887 1.97405 1.98797 2.64439 1.98797H14.2257C14.895 1.98797 15.4398 2.54814 15.4398 3.23655V11.2064C15.4398 11.8959 14.8943 12.4568 14.224 12.4568H7.01904C6.85931 12.4568 6.7041 12.5128 6.5782 12.6156L3.82185 14.8672Z" fill="white"/>
<path id="Vector_2" d="M7.56637 5.78987C7.56637 5.52824 7.69524 5.28412 7.92048 5.1202C8.05165 5.02389 8.33119 4.87293 8.7289 4.95909C9.05893 5.02879 9.3312 5.27816 9.40692 5.58007C9.51706 6.01788 9.27575 6.34395 9.0138 6.50332C8.20156 6.99681 7.71665 7.84895 7.71665 8.7827C7.71665 9.17883 8.06733 9.5 8.49984 9.5C8.93235 9.5 9.28302 9.17883 9.28302 8.7827C9.28302 8.33789 9.5117 7.9225 9.87997 7.6987C10.758 7.16493 11.1718 6.20701 10.9335 5.2589C10.7236 4.42112 9.9966 3.7546 9.08072 3.56092C8.3224 3.40051 7.54457 3.56057 6.94494 3.99767C6.34455 4.43548 6 5.08868 6 5.78987C6 6.18599 6.35067 6.50717 6.78318 6.50717C7.21569 6.50717 7.56637 6.18599 7.56637 5.78987Z" fill="white"/>
<path id="Vector_3" d="M8.50122 9.5H8.4961C8.22065 9.5 8 9.94775 8 10.5C8 11.0522 8.22577 11.5 8.50122 11.5C8.77667 11.5 9 11.0522 9 10.5C9 9.94775 8.77667 9.5 8.50122 9.5Z" fill="white"/>
</g>
<defs>
<clipPath id="clip0_0_4">
<rect width="20" height="20" fill="white"/>
</clipPath>
</defs>
</svg>
