<svg preserveAspectRatio="xMidYMid meet" width="100%" height="100%" overflow="visible" style="display: block;" viewBox="0 0 16.0001 18.6182" fill="none" xmlns="http://www.w3.org/2000/svg">
<g id="Files">
<path id="Vector (Stroke)" d="M2.90911 13.5273V2.18183C2.90911 0.976862 3.88595 1.7494e-05 5.09092 1.7494e-05H10.9091C11.3107 1.7494e-05 11.6364 0.325628 11.6364 0.727288C11.6364 1.12895 11.3107 1.45456 10.9091 1.45456H5.09092C4.68927 1.45456 4.36365 1.78018 4.36365 2.18183V13.5273C4.36365 13.9289 4.68927 14.2545 5.09092 14.2545H13.8182C14.2198 14.2545 14.5454 13.9289 14.5454 13.5273V8C14.5454 7.59833 14.871 7.27272 15.2727 7.27272C15.6744 7.27272 16 7.59833 16 8V13.5273C16 14.7322 15.0231 15.7091 13.8182 15.7091H5.09092C3.88595 15.7091 2.90911 14.7322 2.90911 13.5273Z" fill="white"/>
<path id="Vector (Stroke)_2" d="M10.6308 0.0554004C10.9025 -0.0571615 11.2154 0.00503955 11.4234 0.213035L15.787 4.57666C15.995 4.78465 16.0572 5.09748 15.9446 5.36924C15.832 5.641 15.5669 5.8182 15.2727 5.8182H12.3636C11.1586 5.8182 10.1818 4.8413 10.1818 3.63639V0.727309C10.1818 0.433156 10.359 0.167968 10.6308 0.0554004ZM11.6364 3.63639C11.6364 4.03803 11.962 4.36366 12.3636 4.36366H13.5169L11.6364 2.48313V3.63639Z" fill="white"/>
<path id="Vector (Stroke)_3" d="M2.28882e-05 16.4363V5.09091C2.28882e-05 3.88594 0.976868 2.9091 2.18183 2.9091H3.63638C4.03804 2.9091 4.36365 3.23471 4.36365 3.63637C4.36365 4.03803 4.03804 4.36364 3.63638 4.36364H2.18183C1.78019 4.36364 1.45456 4.68927 1.45456 5.09091V16.4363C1.45456 16.838 1.78019 17.1636 2.18183 17.1636H10.9091C11.3107 17.1636 11.6364 16.838 11.6364 16.4363V14.9818C11.6364 14.5801 11.962 14.2545 12.3636 14.2545C12.7653 14.2545 13.0909 14.5801 13.0909 14.9818V16.4363C13.0909 17.6413 12.1141 18.6181 10.9091 18.6181H2.18183C0.976868 18.6181 2.28882e-05 17.6413 2.28882e-05 16.4363Z" fill="white"/>
<path id="Vector (Stroke)_4" d="M12.3636 7.27272C12.7653 7.27272 13.0909 7.59833 13.0909 8C13.0909 8.40166 12.7653 8.72727 12.3636 8.72727H6.54546C6.1438 8.72727 5.81819 8.40166 5.81819 8C5.81819 7.59833 6.1438 7.27272 6.54546 7.27272H12.3636Z" fill="white"/>
<path id="Vector (Stroke)_5" d="M12.3636 10.1818C12.7653 10.1818 13.0909 10.5074 13.0909 10.9091C13.0909 11.3107 12.7653 11.6363 12.3636 11.6363H6.54546C6.1438 11.6363 5.81819 11.3107 5.81819 10.9091C5.81819 10.5074 6.1438 10.1818 6.54546 10.1818H12.3636Z" fill="white"/>
</g>
</svg>
