<svg preserveAspectRatio="xMidYMid meet" width="100%" height="100%" overflow="visible" style="display: block;" viewBox="0 0 20 20" fill="none" xmlns="http://www.w3.org/2000/svg">
<g id="notice 1">
<path id="Vector" d="M17.8496 12.769C16.612 11.0082 15.9846 8.9859 15.9846 6.75832C15.9846 3.4584 13.2999 0.77375 10 0.77375C6.70012 0.77375 4.01543 3.4584 4.01543 6.75832C4.01543 8.9859 3.38797 11.0082 2.15043 12.769C1.82871 13.2267 1.74914 13.7711 1.92633 14.3017C2.10348 14.8323 2.4941 15.2196 3.02629 15.3923C4.08605 15.7361 5.23617 15.9962 6.44078 16.1687C6.7032 17.8973 8.1993 19.2263 10 19.2263C11.8007 19.2263 13.2968 17.8973 13.5593 16.1687C14.7639 15.9962 15.9139 15.7361 16.9737 15.3923H16.9738C17.5059 15.2197 17.8965 14.8324 18.0737 14.3018C18.2509 13.7711 18.1713 13.2267 17.8496 12.769ZM10 17.9762C8.94562 17.9762 8.05133 17.2783 7.75461 16.3202C8.49066 16.3847 9.24145 16.418 10 16.418C10.7586 16.418 11.5094 16.3847 12.2454 16.3202C11.9487 17.2783 11.0543 17.9762 10 17.9762ZM16.8881 13.9058C16.8377 14.0568 16.7395 14.1541 16.588 14.2032C14.6423 14.8344 12.3641 15.168 10 15.168C7.63586 15.168 5.3577 14.8344 3.41199 14.2032C3.26055 14.1541 3.16238 14.0568 3.11199 13.9058C3.06156 13.7547 3.08152 13.618 3.17309 13.4877C4.56145 11.5123 5.26539 9.24816 5.26539 6.75828C5.26539 4.14762 7.3893 2.02371 9.99996 2.02371C12.6106 2.02371 14.7345 4.14766 14.7345 6.75828C14.7345 9.24816 15.4385 11.5123 16.8269 13.4878C16.9185 13.6181 16.9385 13.7548 16.8881 13.9058Z" fill="white"/>
</g>
</svg>
